<svg width="351" height="350" viewBox="0 0 351 350" fill="none" xmlns="http://www.w3.org/2000/svg">
<g id="Circuit Board">
<g id="Outer Circuit">
<rect id="Rectangle 33" width="2.47824" height="30.2283" transform="matrix(0.70722 -0.706994 0.70722 0.706994 247.293 79.0842)" fill="#A5D8FF"/>
<rect id="Rectangle 10" x="6.56982" y="34.7091" width="2.47784" height="28.5043" transform="rotate(-90 6.56982 34.7091)" fill="#A5D8FF"/>
<rect id="Rectangle 11" width="2.47824" height="33.0432" transform="matrix(0.70722 -0.706994 0.70722 0.706994 33.4216 33.9833)" fill="#A5D8FF"/>
<rect id="Rectangle 21" width="2.47824" height="12.3086" transform="matrix(0.70722 -0.706994 0.70722 0.706994 112.543 69.3887)" fill="#A5D8FF"/>
<rect id="Rectangle 32" width="2.47824" height="65.2363" transform="matrix(0.70722 -0.706994 0.70722 0.706994 214.469 65.8821)" fill="#A5D8FF"/>
<rect id="Rectangle 26" width="2.47824" height="33.0432" transform="matrix(0.70722 0.706994 -0.70722 0.706994 205.03 14.8791)" fill="#A5D8FF"/>
<rect id="Rectangle 27" width="2.47824" height="21.5221" transform="matrix(0.70722 -0.706994 0.70722 0.706994 179.909 39.9926)" fill="#A5D8FF"/>
<rect id="Rectangle 33_2" width="2.47824" height="32.2218" transform="matrix(0.70722 0.706994 -0.70722 0.706994 283.39 85.7207)" fill="#A5D8FF"/>
<ellipse id="Ellipse 5" cx="284.266" cy="86.5968" rx="3.30379" ry="3.30485" transform="rotate(90 284.266 86.5968)" fill="#A5D8FF"/>
<rect id="Rectangle 33_3" width="2.47824" height="32.2218" transform="matrix(-0.70722 -0.706994 0.70722 -0.706994 301.023 216.552)" fill="#A5D8FF"/>
<ellipse id="Ellipse 5_2" cx="300.147" cy="215.676" rx="3.30379" ry="3.30485" transform="rotate(-90 300.147 215.676)" fill="#A5D8FF"/>
<rect id="Rectangle 33_4" width="2.47824" height="73.1029" transform="matrix(0.70722 0.706994 -0.70722 0.706994 344.864 293.034)" fill="#A5D8FF"/>
<ellipse id="Ellipse 5_3" cx="345.74" cy="293.91" rx="3.30379" ry="3.30485" transform="rotate(90 345.74 293.91)" fill="#A5D8FF"/>
<rect id="Rectangle 33_5" width="2.47824" height="29.8231" transform="matrix(0.70722 0.706994 -0.70722 0.706994 344.852 216.736)" fill="#A5D8FF"/>
<rect id="Rectangle 33_6" width="2.47824" height="32.2218" transform="matrix(-0.70722 -0.706994 0.70722 -0.706994 175.991 322.595)" fill="#A5D8FF"/>
<ellipse id="Ellipse 5_4" cx="175.115" cy="321.719" rx="3.30379" ry="3.30485" transform="rotate(-90 175.115 321.719)" fill="#A5D8FF"/>
<rect id="Rectangle 33_7" width="2.47824" height="32.2218" transform="matrix(-0.70722 -0.706994 0.70722 -0.706994 88.7732 278.196)" fill="#A5D8FF"/>
<ellipse id="Ellipse 5_5" cx="87.8969" cy="277.32" rx="3.30379" ry="3.30485" transform="rotate(-90 87.8969 277.32)" fill="#A5D8FF"/>
<rect id="Rectangle 33_8" width="2.47824" height="21.0396" transform="matrix(-0.70722 0.706994 -0.70722 -0.706994 68.2856 312.779)" fill="#A5D8FF"/>
<ellipse id="Ellipse 5_6" cx="67.4095" cy="313.655" rx="3.30485" ry="3.30379" transform="rotate(-180 67.4095 313.655)" fill="#A5D8FF"/>
<rect id="Rectangle 33_9" width="2.47824" height="24.0495" transform="matrix(0.70722 -0.706994 0.70722 0.706994 4.48584 197.304)" fill="#A5D8FF"/>
<ellipse id="Ellipse 5_7" cx="5.36222" cy="196.428" rx="3.30485" ry="3.30379" fill="#A5D8FF"/>
<rect id="Rectangle 33_10" width="2.47824" height="42.1884" transform="matrix(0.70722 -0.706994 0.70722 0.706994 4.43726 171.88)" fill="#A5D8FF"/>
<ellipse id="Ellipse 5_8" cx="5.31339" cy="171.004" rx="3.30485" ry="3.30379" fill="#A5D8FF"/>
<rect id="Rectangle 33_11" x="36.8401" y="256.177" width="2.47864" height="14.4755" fill="#A5D8FF"/>
<circle id="Ellipse 5_9" r="3.30432" transform="matrix(0.70722 0.706994 -0.70722 0.706994 38.0793 256.177)" fill="#A5D8FF"/>
<rect id="Rectangle 33_12" x="76.7976" y="210.361" width="2.47864" height="14.4755" fill="#A5D8FF"/>
<circle id="Ellipse 5_10" r="3.30432" transform="matrix(0.70722 0.706994 -0.70722 0.706994 78.0371 210.361)" fill="#A5D8FF"/>
<rect id="Rectangle 33_13" width="2.47824" height="14.4778" transform="matrix(0.70722 -0.706994 0.70722 0.706994 24.5715 231.625)" fill="#A5D8FF"/>
<ellipse id="Ellipse 5_11" cx="25.4477" cy="230.748" rx="3.30485" ry="3.30379" fill="#A5D8FF"/>
<rect id="Rectangle 33_14" width="2.47824" height="23.2034" transform="matrix(0.70722 -0.706994 0.70722 0.706994 4.35352 55.1268)" fill="#A5D8FF"/>
<ellipse id="Ellipse 5_12" cx="5.22965" cy="54.2508" rx="3.30485" ry="3.30379" fill="#A5D8FF"/>
<rect id="Rectangle 33_15" x="22.2722" y="164.873" width="2.47864" height="23.8979" fill="#A5D8FF"/>
<circle id="Ellipse 5_13" r="3.30432" transform="matrix(0.70722 0.706994 -0.70722 0.706994 23.5115 164.873)" fill="#A5D8FF"/>
<rect id="Rectangle 33_16" width="2.47824" height="23.9018" transform="matrix(0.70722 0.706994 -0.70722 0.706994 73.0906 145.304)" fill="#A5D8FF"/>
<ellipse id="Ellipse 5_14" cx="73.9669" cy="146.18" rx="3.30379" ry="3.30485" transform="rotate(90 73.9669 146.18)" fill="#A5D8FF"/>
<rect id="Rectangle 33_17" width="2.47824" height="34.1453" transform="matrix(0.70722 -0.706994 0.70722 0.706994 40.8079 150.219)" fill="#A5D8FF"/>
<ellipse id="Ellipse 5_15" cx="41.684" cy="149.343" rx="3.30485" ry="3.30379" fill="#A5D8FF"/>
<rect id="Rectangle 33_18" width="2.47824" height="23.9018" transform="matrix(0.70722 0.706994 -0.70722 0.706994 77.1611 188.67)" fill="#A5D8FF"/>
<ellipse id="Ellipse 5_16" cx="78.0374" cy="189.546" rx="3.30379" ry="3.30485" transform="rotate(90 78.0374 189.546)" fill="#A5D8FF"/>
<rect id="Rectangle 33_19" width="2.47824" height="27.6764" transform="matrix(0.70722 -0.706994 0.70722 0.706994 4.4856 253.096)" fill="#A5D8FF"/>
<ellipse id="Ellipse 5_17" cx="5.36173" cy="252.22" rx="3.30485" ry="3.30379" fill="#A5D8FF"/>
<rect id="Rectangle 33_20" width="2.47824" height="30.7666" transform="matrix(-0.70722 0.706994 -0.70722 -0.706994 68.314 344.398)" fill="#A5D8FF"/>
<ellipse id="Ellipse 5_18" cx="67.4376" cy="345.274" rx="3.30485" ry="3.30379" transform="rotate(-180 67.4376 345.274)" fill="#A5D8FF"/>
<rect id="Rectangle 33_21" width="2.47824" height="23.6763" transform="matrix(-0.70722 0.706994 -0.70722 -0.706994 143.047 303.743)" fill="#A5D8FF"/>
<ellipse id="Ellipse 5_19" cx="142.171" cy="304.619" rx="3.30485" ry="3.30379" transform="rotate(-180 142.171 304.619)" fill="#A5D8FF"/>
<rect id="Rectangle 33_22" width="2.47824" height="23.6763" transform="matrix(0.70722 0.706994 -0.70722 0.706994 207.648 271.895)" fill="#A5D8FF"/>
<ellipse id="Ellipse 5_20" cx="208.524" cy="272.771" rx="3.30379" ry="3.30485" transform="rotate(90 208.524 272.771)" fill="#A5D8FF"/>
<rect id="Rectangle 33_23" width="2.47824" height="23.6763" transform="matrix(-0.70722 -0.706994 0.70722 -0.706994 265.305 236.299)" fill="#A5D8FF"/>
<ellipse id="Ellipse 5_21" cx="264.428" cy="235.423" rx="3.30379" ry="3.30485" transform="rotate(-90 264.428 235.423)" fill="#A5D8FF"/>
<rect id="Rectangle 33_24" width="2.47824" height="15.45" transform="matrix(-0.70722 0.706994 -0.70722 -0.706994 115.824 344.396)" fill="#A5D8FF"/>
<ellipse id="Ellipse 5_22" cx="114.948" cy="345.272" rx="3.30485" ry="3.30379" transform="rotate(-180 114.948 345.272)" fill="#A5D8FF"/>
<rect id="Rectangle 33_25" x="124.135" y="332.452" width="2.47784" height="19.3979" transform="rotate(-90 124.135 332.452)" fill="#A5D8FF"/>
<circle id="Ellipse 5_23" r="3.30432" transform="matrix(0.70722 -0.706994 0.70722 0.706994 124.135 331.213)" fill="#A5D8FF"/>
<rect id="Rectangle 33_26" x="43.574" y="299.73" width="2.47784" height="48.928" transform="rotate(-90 43.574 299.73)" fill="#A5D8FF"/>
<circle id="Ellipse 5_24" r="3.30432" transform="matrix(0.70722 -0.706994 0.70722 0.706994 43.5739 298.491)" fill="#A5D8FF"/>
<rect id="Rectangle 33_27" x="14.3655" y="283.54" width="2.47864" height="48.9124" fill="#A5D8FF"/>
<circle id="Ellipse 5_25" r="3.30432" transform="matrix(0.70722 0.706994 -0.70722 0.706994 15.6047 283.54)" fill="#A5D8FF"/>
<rect id="Rectangle 33_28" width="2.47824" height="40.3873" transform="matrix(0.70722 0.706994 -0.70722 0.706994 42.6973 231.743)" fill="#A5D8FF"/>
<ellipse id="Ellipse 5_26" cx="43.5736" cy="232.619" rx="3.30379" ry="3.30485" transform="rotate(90 43.5736 232.619)" fill="#A5D8FF"/>
<rect id="Rectangle 33_29" width="2.47824" height="83.037" transform="matrix(-0.70722 -0.706994 0.70722 -0.706994 6.23828 233.06)" fill="#A5D8FF"/>
<ellipse id="Ellipse 5_27" cx="5.36198" cy="232.184" rx="3.30379" ry="3.30485" transform="rotate(-90 5.36198 232.184)" fill="#A5D8FF"/>
<rect id="Rectangle 33_30" width="2.47824" height="65.72" transform="matrix(0.70722 0.706994 -0.70722 0.706994 62.4172 261.684)" fill="#A5D8FF"/>
<ellipse id="Ellipse 5_28" cx="63.2935" cy="262.56" rx="3.30379" ry="3.30485" transform="rotate(90 63.2935 262.56)" fill="#A5D8FF"/>
<rect id="Rectangle 33_31" x="39.2808" y="324.435" width="2.47784" height="48.928" transform="rotate(-90 39.2808 324.435)" fill="#A5D8FF"/>
<circle id="Ellipse 5_29" r="3.30432" transform="matrix(0.70722 -0.706994 0.70722 0.706994 39.2805 323.196)" fill="#A5D8FF"/>
<rect id="Rectangle 33_32" x="5.36182" y="273.13" width="2.47784" height="48.4534" transform="rotate(-90 5.36182 273.13)" fill="#A5D8FF"/>
<circle id="Ellipse 5_30" r="3.30432" transform="matrix(0.70722 -0.706994 0.70722 0.706994 5.36175 271.892)" fill="#A5D8FF"/>
<rect id="Rectangle 33_33" width="2.47824" height="30.5222" transform="matrix(-0.70722 0.706994 -0.70722 -0.706994 139.743 316.531)" fill="#A5D8FF"/>
<ellipse id="Ellipse 5_31" cx="138.866" cy="317.408" rx="3.30485" ry="3.30379" transform="rotate(-180 138.866 317.408)" fill="#A5D8FF"/>
<rect id="Rectangle 33_34" width="2.47824" height="51.9518" transform="matrix(-0.70722 -0.706994 0.70722 -0.706994 92.3896 346.148)" fill="#A5D8FF"/>
<ellipse id="Ellipse 5_32" cx="91.5133" cy="345.272" rx="3.30379" ry="3.30485" transform="rotate(-90 91.5133 345.272)" fill="#A5D8FF"/>
<rect id="Rectangle 33_35" width="2.47824" height="59.3319" transform="matrix(-0.70722 -0.706994 0.70722 -0.706994 82.0183 311.227)" fill="#A5D8FF"/>
<ellipse id="Ellipse 5_33" rx="3.30375" ry="3.30481" transform="matrix(-1.17206e-05 -1 1 1.15445e-05 81.1412 310.351)" fill="#A5D8FF"/>
<rect id="Rectangle 33_36" width="2.47824" height="77.1074" transform="matrix(-0.70722 -0.706994 0.70722 -0.706994 79.5898 333.853)" fill="#A5D8FF"/>
<ellipse id="Ellipse 5_34" rx="3.30375" ry="3.30481" transform="matrix(-1.17206e-05 -1 1 1.15445e-05 78.713 332.977)" fill="#A5D8FF"/>
<rect id="Rectangle 33_37" width="2.47824" height="39.7848" transform="matrix(-0.70722 -0.706994 0.70722 -0.706994 188.79 346.153)" fill="#A5D8FF"/>
<ellipse id="Ellipse 5_35" rx="3.30394" ry="3.30499" transform="matrix(-0.000174755 -1 1 0.000174474 187.913 345.278)" fill="#A5D8FF"/>
<rect id="Rectangle 33_38" width="2.47824" height="41.0592" transform="matrix(-0.70722 -0.706994 0.70722 -0.706994 241.571 346.141)" fill="#A5D8FF"/>
<ellipse id="Ellipse 5_36" cx="240.695" cy="345.265" rx="3.30438" ry="3.30544" transform="rotate(-90 240.695 345.265)" fill="#A5D8FF"/>
<rect id="Rectangle 33_39" width="2.47824" height="32.2218" transform="matrix(-0.70722 -0.706994 0.70722 -0.706994 229.603 276.951)" fill="#A5D8FF"/>
<ellipse id="Ellipse 5_37" cx="228.727" cy="276.075" rx="3.30379" ry="3.30485" transform="rotate(-90 228.727 276.075)" fill="#A5D8FF"/>
<rect id="Rectangle 33_40" width="2.47824" height="27.9828" transform="matrix(-0.70722 0.706994 -0.70722 -0.706994 172.056 344.396)" fill="#A5D8FF"/>
<ellipse id="Ellipse 5_38" cx="171.179" cy="345.272" rx="3.30485" ry="3.30379" transform="rotate(-180 171.179 345.272)" fill="#A5D8FF"/>
<rect id="Rectangle 33_41" width="2.47824" height="32.2218" transform="matrix(-0.70722 -0.706994 0.70722 -0.706994 242.477 310.959)" fill="#A5D8FF"/>
<ellipse id="Ellipse 5_39" cx="241.601" cy="310.083" rx="3.30379" ry="3.30485" transform="rotate(-90 241.601 310.083)" fill="#A5D8FF"/>
<rect id="Rectangle 33_42" width="2.47824" height="22.6927" transform="matrix(-0.70722 0.706994 -0.70722 -0.706994 275.388 344.37)" fill="#A5D8FF"/>
<ellipse id="Ellipse 5_40" cx="274.511" cy="345.246" rx="3.30485" ry="3.30379" transform="rotate(-180 274.511 345.246)" fill="#A5D8FF"/>
<rect id="Rectangle 14" width="2.47824" height="25.1842" transform="matrix(0.70722 0.706994 -0.70722 0.706994 23.6338 90.1841)" fill="#A5D8FF"/>
<circle id="Ellipse 8" r="3.30432" transform="matrix(0.70722 0.706994 -0.70722 0.706994 6.69946 108.865)" fill="#A5D8FF"/>
<circle id="Ellipse 9" r="3.30432" transform="matrix(0.70722 0.706994 -0.70722 0.706994 24.51 91.0602)" fill="#A5D8FF"/>
<rect id="Rectangle 20" width="2.47824" height="88.2145" transform="matrix(0.70722 0.706994 -0.70722 0.706994 112.564 65.9048)" fill="#A5D8FF"/>
<circle id="Ellipse 8_2" r="3.30432" transform="matrix(0.70722 0.706994 -0.70722 0.706994 51.0535 129.148)" fill="#A5D8FF"/>
<rect id="Rectangle 20_2" width="2.47824" height="88.2145" transform="matrix(0.70722 0.706994 -0.70722 0.706994 161.517 56.0174)" fill="#A5D8FF"/>
<circle id="Ellipse 8_3" r="3.30432" transform="matrix(0.70722 0.706994 -0.70722 0.706994 100.006 119.261)" fill="#A5D8FF"/>
<rect id="Rectangle 28" width="2.47824" height="41.0163" transform="matrix(0.70722 0.706994 -0.70722 0.706994 193.379 53.4564)" fill="#A5D8FF"/>
<circle id="Ellipse 8_4" r="3.30432" transform="matrix(0.70722 0.706994 -0.70722 0.706994 165.248 83.3307)" fill="#A5D8FF"/>
<rect id="Rectangle 34" width="2.47824" height="79.9285" transform="matrix(0.70722 -0.706994 0.70722 0.706994 203.199 76.9242)" fill="#A5D8FF"/>
<circle id="Ellipse 8_5" r="3.30432" transform="matrix(0.70722 -0.706994 0.70722 0.706994 260.602 132.557)" fill="#A5D8FF"/>
<rect id="Rectangle 35" width="2.47824" height="32.2218" transform="matrix(0.70722 0.706994 -0.70722 0.706994 287.188 123.425)" fill="#A5D8FF"/>
<circle id="Ellipse 3" r="3.30432" transform="matrix(0.70722 0.706994 -0.70722 0.706994 288.064 124.301)" fill="#A5D8FF"/>
<circle id="Ellipse 4" r="3.30432" transform="matrix(0.70722 0.706994 -0.70722 0.706994 265.276 147.081)" fill="#A5D8FF"/>
<rect id="Rectangle 35_2" width="2.47824" height="32.2218" transform="matrix(-0.70722 0.706994 -0.70722 -0.706994 346.604 185.861)" fill="#A5D8FF"/>
<circle id="Ellipse 3_2" r="3.30432" transform="matrix(-0.70722 0.706994 -0.70722 -0.706994 345.728 186.737)" fill="#A5D8FF"/>
<circle id="Ellipse 4_2" r="3.30432" transform="matrix(-0.70722 0.706994 -0.70722 -0.706994 322.94 163.956)" fill="#A5D8FF"/>
<rect id="Rectangle 35_3" width="2.47824" height="32.2218" transform="matrix(-0.70722 0.706994 -0.70722 -0.706994 87.0857 254.802)" fill="#A5D8FF"/>
<circle id="Ellipse 3_3" r="3.30432" transform="matrix(-0.70722 0.706994 -0.70722 -0.706994 86.2093 255.678)" fill="#A5D8FF"/>
<circle id="Ellipse 4_3" r="3.30432" transform="matrix(-0.70722 0.706994 -0.70722 -0.706994 63.4215 232.898)" fill="#A5D8FF"/>
<rect id="Rectangle 35_4" width="2.47824" height="32.2218" transform="matrix(-0.70722 0.706994 -0.70722 -0.706994 29.0017 344.452)" fill="#A5D8FF"/>
<circle id="Ellipse 3_4" r="3.30432" transform="matrix(-0.70722 0.706994 -0.70722 -0.706994 28.1256 345.328)" fill="#A5D8FF"/>
<circle id="Ellipse 4_4" r="3.30432" transform="matrix(-0.70722 0.706994 -0.70722 -0.706994 5.33747 322.547)" fill="#A5D8FF"/>
<rect id="Rectangle 35_5" width="2.47824" height="32.2218" transform="matrix(0.70722 0.706994 -0.70722 0.706994 344.913 321.611)" fill="#A5D8FF"/>
<circle id="Ellipse 3_5" r="3.30432" transform="matrix(0.70722 0.706994 -0.70722 0.706994 345.789 322.487)" fill="#A5D8FF"/>
<circle id="Ellipse 4_5" r="3.30432" transform="matrix(0.70722 0.706994 -0.70722 0.706994 323.001 345.267)" fill="#A5D8FF"/>
<rect id="Rectangle 35_6" width="2.47824" height="79.3546" transform="matrix(-0.70722 0.706994 -0.70722 -0.706994 322.755 257.094)" fill="#A5D8FF"/>
<circle id="Ellipse 3_6" r="3.30432" transform="matrix(-0.70722 0.706994 -0.70722 -0.706994 322.423 258.514)" fill="#A5D8FF"/>
<circle id="Ellipse 4_6" r="3.30432" transform="matrix(-0.70722 0.706994 -0.70722 -0.706994 265.758 201.867)" fill="#A5D8FF"/>
<rect id="Rectangle 35_7" width="2.47824" height="79.3546" transform="matrix(-0.70722 0.706994 -0.70722 -0.706994 227.997 325.596)" fill="#A5D8FF"/>
<circle id="Ellipse 3_7" r="3.30432" transform="matrix(-0.70722 0.706994 -0.70722 -0.706994 227.665 327.017)" fill="#A5D8FF"/>
<circle id="Ellipse 4_7" r="3.30432" transform="matrix(-0.70722 0.706994 -0.70722 -0.706994 171 270.369)" fill="#A5D8FF"/>
<rect id="Rectangle 35_8" width="2.47824" height="79.3546" transform="matrix(-0.70722 0.706994 -0.70722 -0.706994 300.085 298.364)" fill="#A5D8FF"/>
<circle id="Ellipse 3_8" r="3.30432" transform="matrix(-0.70722 0.706994 -0.70722 -0.706994 299.754 299.784)" fill="#A5D8FF"/>
<circle id="Ellipse 4_8" r="3.30432" transform="matrix(-0.70722 0.706994 -0.70722 -0.706994 243.088 243.137)" fill="#A5D8FF"/>
<rect id="Rectangle 35_9" width="2.47824" height="79.3546" transform="matrix(-0.70722 0.706994 -0.70722 -0.706994 328.169 285.551)" fill="#A5D8FF"/>
<circle id="Ellipse 3_9" r="3.30432" transform="matrix(-0.70722 0.706994 -0.70722 -0.706994 327.836 286.971)" fill="#A5D8FF"/>
<rect id="Rectangle 35_10" width="2.47824" height="80.0512" transform="matrix(-0.70722 -0.706994 0.70722 -0.706994 131.277 345.603)" fill="#A5D8FF"/>
<circle id="Ellipse 3_10" r="3.30432" transform="matrix(-0.70722 -0.706994 0.70722 -0.706994 129.856 345.272)" fill="#A5D8FF"/>
<rect id="Rectangle 35_11" width="2.47824" height="44.2414" transform="matrix(-0.70722 0.706994 -0.70722 -0.706994 286.472 329.468)" fill="#A5D8FF"/>
<circle id="Ellipse 3_11" r="3.30432" transform="matrix(-0.70722 0.706994 -0.70722 -0.706994 286.14 330.889)" fill="#A5D8FF"/>
<rect id="Rectangle 35_12" width="2.47824" height="44.2414" transform="matrix(0.70722 -0.706994 0.70722 0.706994 143.092 267.734)" fill="#A5D8FF"/>
<circle id="Ellipse 3_12" r="3.30432" transform="matrix(0.70722 -0.706994 0.70722 0.706994 143.424 266.314)" fill="#A5D8FF"/>
<rect id="Rectangle 35_13" width="2.47824" height="101.648" transform="matrix(0.70722 0.706994 -0.70722 0.706994 320.933 5.46741)" fill="#A5D8FF"/>
<circle id="Ellipse 3_13" cx="321.81" cy="6.34471" r="3.30432" transform="rotate(45 321.81 6.34471)" fill="#A5D8FF"/>
<rect id="Rectangle 35_14" width="2.47824" height="92.6235" transform="matrix(-0.70722 -0.706994 0.70722 -0.706994 270.472 164.313)" fill="#A5D8FF"/>
<circle id="Ellipse 3_14" r="3.30432" transform="matrix(-0.70722 -0.706994 0.70722 -0.706994 269.596 163.437)" fill="#A5D8FF"/>
<rect id="Rectangle 35_15" width="2.47824" height="102.517" transform="matrix(0.70722 0.706994 -0.70722 0.706994 301.234 4.15344)" fill="#A5D8FF"/>
<circle id="Ellipse 3_15" cx="302.11" cy="5.03031" r="3.30432" transform="rotate(45 302.11 5.03031)" fill="#A5D8FF"/>
<rect id="Rectangle 17" width="2.47824" height="84.2336" transform="matrix(0.70722 0.706994 -0.70722 0.706994 85.6995 70.4834)" fill="#A5D8FF"/>
<circle id="Ellipse 8_6" r="3.30432" transform="matrix(0.70722 0.706994 -0.70722 0.706994 86.5754 71.3595)" fill="#A5D8FF"/>
<circle id="Ellipse 9_2" r="3.30432" transform="matrix(0.70722 0.706994 -0.70722 0.706994 27.0039 130.912)" fill="#A5D8FF"/>
<rect id="Rectangle 16" width="2.47824" height="84.2336" transform="matrix(0.70722 0.706994 -0.70722 0.706994 86.8809 46.0556)" fill="#A5D8FF"/>
<circle id="Ellipse 8_7" r="3.30432" transform="matrix(0.70722 0.706994 -0.70722 0.706994 28.1855 106.484)" fill="#A5D8FF"/>
<rect id="Rectangle 12" width="2.47824" height="47.5016" transform="matrix(0.70722 0.706994 -0.70722 0.706994 68.427 45.7106)" fill="#A5D8FF"/>
<circle id="Ellipse 8_8" r="3.30432" transform="matrix(0.70722 0.706994 -0.70722 0.706994 35.709 80.17)" fill="#A5D8FF"/>
<rect id="Rectangle 13" width="2.47824" height="57.6758" transform="matrix(0.70722 0.706994 -0.70722 0.706994 45.4077 45.9331)" fill="#A5D8FF"/>
<circle id="Ellipse 8_9" r="3.30432" transform="matrix(0.70722 0.706994 -0.70722 0.706994 5.29077 87.7891)" fill="#A5D8FF"/>
<rect id="Rectangle 31" width="2.47824" height="61.1629" transform="matrix(0.70722 -0.706994 0.70722 0.706994 25.6399 5.50519)" fill="#A5D8FF"/>
<ellipse id="Ellipse 8_10" rx="3.30432" ry="3.24363" transform="matrix(0.70722 -0.706994 0.70722 0.706994 26.5163 4.62939)" fill="#A5D8FF"/>
<rect id="Rectangle 31_2" width="2.47824" height="58.5169" transform="matrix(0.70722 -0.706994 0.70722 0.706994 47.1252 6.5528)" fill="#A5D8FF"/>
<ellipse id="Ellipse 8_11" rx="3.30432" ry="3.10311" transform="matrix(0.70722 -0.706994 0.70722 0.706994 48.0017 5.67653)" fill="#A5D8FF"/>
<rect id="Rectangle 31_3" width="2.47824" height="89.2152" transform="matrix(0.70722 -0.706994 0.70722 0.706994 67.6753 5.53485)" fill="#A5D8FF"/>
<ellipse id="Ellipse 8_12" rx="3.30432" ry="3.10311" transform="matrix(0.70722 -0.706994 0.70722 0.706994 68.5515 4.65853)" fill="#A5D8FF"/>
<rect id="Rectangle 31_4" width="2.47824" height="73.945" transform="matrix(0.70722 -0.706994 0.70722 0.706994 89.2439 5.53485)" fill="#A5D8FF"/>
<ellipse id="Ellipse 8_13" rx="3.30432" ry="3.10311" transform="matrix(0.70722 -0.706994 0.70722 0.706994 90.1201 4.65853)" fill="#A5D8FF"/>
<rect id="Rectangle 31_5" width="2.47824" height="92.3069" transform="matrix(0.70722 -0.706994 0.70722 0.706994 110.766 5.53485)" fill="#A5D8FF"/>
<ellipse id="Ellipse 8_14" rx="3.30432" ry="3.10311" transform="matrix(0.70722 -0.706994 0.70722 0.706994 111.642 4.65853)" fill="#A5D8FF"/>
<rect id="Rectangle 30" width="2.47824" height="26.7542" transform="matrix(0.70722 -0.706994 0.70722 0.706994 133.946 5.69122)" fill="#A5D8FF"/>
<circle id="Ellipse 8_15" r="3.30432" transform="matrix(0.70722 -0.706994 0.70722 0.706994 134.822 4.81488)" fill="#A5D8FF"/>
<circle id="Ellipse 9_3" r="3.30432" transform="matrix(0.70722 -0.706994 0.70722 0.706994 153.743 23.7302)" fill="#A5D8FF"/>
<rect id="Rectangle 29" width="2.47824" height="56.7404" transform="matrix(0.70722 -0.706994 0.70722 0.706994 174.169 5.87708)" fill="#A5D8FF"/>
<circle id="Ellipse 6" r="3.30432" transform="matrix(0.70722 -0.706994 0.70722 0.706994 175.045 5.00104)" fill="#A5D8FF"/>
<circle id="Ellipse 7" r="3.30432" transform="matrix(0.70722 -0.706994 0.70722 0.706994 215.173 45.1161)" fill="#A5D8FF"/>
<rect id="Rectangle 25" width="2.47824" height="53.2366" transform="matrix(0.70722 -0.706994 0.70722 0.706994 196.023 5.87708)" fill="#A5D8FF"/>
<ellipse id="Ellipse 9_4" rx="3.30486" ry="3.30432" transform="matrix(-0.70722 -0.706994 0.70722 -0.706994 196.899 5.00136)" fill="#A5D8FF"/>
<rect id="Rectangle 25_2" width="2.47824" height="52.1246" transform="matrix(0.70722 -0.706994 0.70722 0.706994 225.889 5.78052)" fill="#A5D8FF"/>
<ellipse id="Ellipse 9_5" rx="3.23583" ry="3.30432" transform="matrix(-0.70722 -0.706994 0.70722 -0.706994 226.766 4.90442)" fill="#A5D8FF"/>
<rect id="Rectangle 24" width="2.47824" height="110.368" transform="matrix(-0.70722 -0.706994 0.70722 -0.706994 196.596 83.9827)" fill="#A5D8FF"/>
<circle id="Ellipse 9_6" r="3.30432" transform="matrix(-0.70722 0.706994 -0.70722 -0.706994 195.72 83.1066)" fill="#A5D8FF"/>
<circle id="Ellipse 10" r="3.30432" transform="matrix(-0.70722 0.706994 -0.70722 -0.706994 273.774 5.07709)" fill="#A5D8FF"/>
<rect id="Rectangle 34_2" width="2.47824" height="34.0567" transform="matrix(0.70722 -0.706994 0.70722 0.706994 277.068 52.764)" fill="#A5D8FF"/>
<circle id="Ellipse 9_7" r="3.30432" transform="matrix(-0.70722 -0.706994 0.70722 -0.706994 302.111 75.8857)" fill="#A5D8FF"/>
<rect id="Rectangle 34_3" width="2.47824" height="90.9645" transform="matrix(0.70722 -0.706994 0.70722 0.706994 280.439 154.257)" fill="#A5D8FF"/>
<circle id="Ellipse 9_8" r="3.30432" transform="matrix(-0.70722 -0.706994 0.70722 -0.706994 345.729 217.612)" fill="#A5D8FF"/>
<rect id="Rectangle 34_4" width="2.47824" height="90.9645" transform="matrix(-0.70722 0.706994 -0.70722 -0.706994 166.805 308.599)" fill="#A5D8FF"/>
<circle id="Ellipse 9_9" r="3.30432" transform="matrix(0.70722 0.706994 -0.70722 0.706994 101.516 245.244)" fill="#A5D8FF"/>
<rect id="Rectangle 34_5" width="2.47824" height="70.967" transform="matrix(-0.70722 0.706994 -0.70722 -0.706994 56.3616 182.951)" fill="#A5D8FF"/>
<circle id="Ellipse 9_10" r="3.30432" transform="matrix(0.70722 0.706994 -0.70722 0.706994 5.21558 133.734)" fill="#A5D8FF"/>
<rect id="Rectangle 34_6" width="2.47824" height="55.0789" transform="matrix(0.70722 -0.706994 0.70722 0.706994 45.3555 193.828)" fill="#A5D8FF"/>
<circle id="Ellipse 9_11" r="3.30432" transform="matrix(-0.70722 -0.706994 0.70722 -0.706994 85.2646 231.813)" fill="#A5D8FF"/>
<rect id="Rectangle 34_7" width="2.47824" height="46.4172" transform="matrix(0.70722 -0.706994 0.70722 0.706994 311.944 122.751)" fill="#A5D8FF"/>
<circle id="Ellipse 9_12" r="3.30432" transform="matrix(-0.70722 -0.706994 0.70722 -0.706994 345.728 154.612)" fill="#A5D8FF"/>
<rect id="Rectangle 34_8" width="2.47824" height="35.8046" transform="matrix(0.70722 -0.706994 0.70722 0.706994 319.59 82.6145)" fill="#A5D8FF"/>
<circle id="Ellipse 9_13" r="3.30432" transform="matrix(-0.70722 -0.706994 0.70722 -0.706994 345.868 106.972)" fill="#A5D8FF"/>
<rect id="Rectangle 34_9" width="2.47824" height="44.42" transform="matrix(0.70722 -0.706994 0.70722 0.706994 313.037 45.4373)" fill="#A5D8FF"/>
<circle id="Ellipse 9_14" r="3.30432" transform="matrix(-0.70722 -0.706994 0.70722 -0.706994 345.408 75.8857)" fill="#A5D8FF"/>
<rect id="Rectangle 35_16" width="2.47824" height="75.5707" transform="matrix(0.70722 0.706994 -0.70722 0.706994 344.832 10.1509)" fill="#A5D8FF"/>
<ellipse id="Ellipse 9_15" rx="3.37878" ry="3.30432" transform="matrix(0.70722 -0.706994 0.70722 0.706994 345.708 11.0269)" fill="#A5D8FF"/>
<rect id="Rectangle 35_17" width="2.47824" height="59.2353" transform="matrix(-0.70722 -0.706994 0.70722 -0.706994 293.174 109.018)" fill="#A5D8FF"/>
<ellipse id="Ellipse 9_16" rx="3.37878" ry="3.30432" transform="matrix(-0.70722 0.706994 -0.70722 -0.706994 292.298 108.142)" fill="#A5D8FF"/>
<rect id="Rectangle 35_18" width="2.47824" height="33.7403" transform="matrix(-0.70722 -0.706994 0.70722 -0.706994 303.384 160.889)" fill="#A5D8FF"/>
<ellipse id="Ellipse 9_17" rx="3.37878" ry="3.30432" transform="matrix(-0.70722 0.706994 -0.70722 -0.706994 302.508 160.013)" fill="#A5D8FF"/>
<rect id="Rectangle 35_19" width="2.47824" height="33.7403" transform="matrix(-0.70722 -0.706994 0.70722 -0.706994 269.736 190.147)" fill="#A5D8FF"/>
<ellipse id="Ellipse 9_18" rx="3.37878" ry="3.30432" transform="matrix(-0.70722 0.706994 -0.70722 -0.706994 268.86 189.271)" fill="#A5D8FF"/>
<rect id="Rectangle 35_20" width="2.47824" height="78.5661" transform="matrix(0.70722 -0.706994 0.70722 0.706994 273.434 253.398)" fill="#A5D8FF"/>
<ellipse id="Ellipse 9_19" rx="3.36229" ry="3.30432" transform="matrix(-0.70722 -0.706994 0.70722 -0.706994 274.31 252.522)" fill="#A5D8FF"/>
<rect id="Rectangle 35_21" width="2.47824" height="78.5661" transform="matrix(0.70722 -0.706994 0.70722 0.706994 251.681 275.234)" fill="#A5D8FF"/>
<ellipse id="Ellipse 9_20" rx="3.36229" ry="3.30432" transform="matrix(-0.70722 -0.706994 0.70722 -0.706994 252.558 274.358)" fill="#A5D8FF"/>
<rect id="Rectangle 22" width="2.47824" height="139.752" transform="matrix(-0.70722 -0.706994 0.70722 -0.706994 74.554 128.268)" fill="#A5D8FF"/>
<circle id="Ellipse 10_2" r="3.30432" transform="matrix(-0.70722 0.706994 -0.70722 -0.706994 73.6776 127.392)" fill="#A5D8FF"/>
<circle id="Ellipse 9_21" r="3.30432" transform="matrix(-0.70722 0.706994 -0.70722 -0.706994 172.513 28.5876)" fill="#A5D8FF"/>
<rect id="Rectangle 9" x="4.09106" y="4.67224" width="2.47864" height="30.0368" fill="#A5D8FF"/>
<ellipse id="Ellipse 9_22" cx="5.33048" cy="4.97496" rx="3.30379" ry="3.30485" transform="rotate(-90 5.33048 4.97496)" fill="#A5D8FF"/>
<rect id="Rectangle 35_22" width="2.47824" height="90.3699" transform="matrix(-0.70722 0.706994 -0.70722 -0.706994 346.617 260.644)" fill="#A5D8FF"/>
<ellipse id="Ellipse 9_23" rx="3.37878" ry="3.30432" transform="matrix(0.70722 0.706994 -0.70722 0.706994 345.74 261.52)" fill="#A5D8FF"/>
<circle id="Ellipse 9_24" r="3.30432" transform="matrix(0.70722 0.706994 -0.70722 0.706994 281.829 197.629)" fill="#A5D8FF"/>
<ellipse id="Ellipse 9_25" cx="294.322" cy="345.265" rx="3.30379" ry="3.30485" transform="rotate(-90 294.322 345.265)" fill="#A5D8FF"/>
</g>
<g id="Center Circuit" className="centerCircuit">
<ellipse id="Ellipse 5_41" cx="199.569" cy="233.798" rx="3.30379" ry="3.30485" transform="rotate(-90 199.569 233.798)" fill="#A5D8FF"/>
<rect id="Rectangle 33_43" width="2.47824" height="54.0209" transform="matrix(-0.70722 -0.706994 0.70722 -0.706994 157.391 234.645)" fill="#A5D8FF"/>
<ellipse id="Ellipse 5_42" cx="156.515" cy="233.769" rx="3.30379" ry="3.30485" transform="rotate(-90 156.515 233.769)" fill="#A5D8FF"/>
<rect id="Rectangle 33_44" x="129.068" y="209.918" width="2.47864" height="14.4755" fill="#A5D8FF"/>
<circle id="Ellipse 5_43" r="3.30432" transform="matrix(0.70722 0.706994 -0.70722 0.706994 130.307 209.918)" fill="#A5D8FF"/>
<rect id="Rectangle 33_45" x="122.78" y="233.77" width="2.47864" height="17.6644" transform="rotate(180 122.78 233.77)" fill="#A5D8FF"/>
<circle id="Ellipse 5_44" r="3.30432" transform="matrix(-0.70722 -0.706994 0.70722 -0.706994 121.54 233.77)" fill="#A5D8FF"/>
<rect id="Rectangle 33_46" width="2.47824" height="23.3376" transform="matrix(0.70722 -0.706994 0.70722 0.706994 115.973 117.313)" fill="#A5D8FF"/>
<ellipse id="Ellipse 5_45" cx="116.85" cy="116.437" rx="3.30485" ry="3.30379" fill="#A5D8FF"/>
<rect id="Rectangle 33_47" width="2.47824" height="20.3746" transform="matrix(-0.70722 0.706994 -0.70722 -0.706994 235.042 184.979)" fill="#A5D8FF"/>
<ellipse id="Ellipse 5_46" cx="234.166" cy="185.856" rx="3.30485" ry="3.30379" transform="rotate(-180 234.166 185.856)" fill="#A5D8FF"/>
<rect id="Rectangle 33_48" width="2.47824" height="23.9834" transform="matrix(0.70722 -0.706994 0.70722 0.706994 187.668 144.83)" fill="#A5D8FF"/>
<ellipse id="Ellipse 5_47" cx="188.545" cy="143.954" rx="3.30485" ry="3.30379" fill="#A5D8FF"/>
<rect id="Rectangle 33_49" width="2.47824" height="19.7396" transform="matrix(0.70722 0.706994 -0.70722 0.706994 233.291 115.626)" fill="#A5D8FF"/>
<ellipse id="Ellipse 5_48" cx="234.167" cy="116.502" rx="3.30379" ry="3.30485" transform="rotate(90 234.167 116.502)" fill="#A5D8FF"/>
<rect id="Rectangle 33_50" width="2.47824" height="32.0786" transform="matrix(0.70722 -0.706994 0.70722 0.706994 203.747 117.378)" fill="#A5D8FF"/>
<ellipse id="Ellipse 5_49" cx="204.623" cy="116.502" rx="3.30485" ry="3.30379" fill="#A5D8FF"/>
<rect id="Rectangle 33_51" width="2.47824" height="38.4177" transform="matrix(0.70722 0.706994 -0.70722 0.706994 233.381 154.615)" fill="#A5D8FF"/>
<ellipse id="Ellipse 5_50" cx="234.258" cy="155.491" rx="3.30379" ry="3.30485" transform="rotate(90 234.258 155.491)" fill="#A5D8FF"/>
<rect id="Rectangle 33_52" width="2.47824" height="26.4967" transform="matrix(0.70722 -0.706994 0.70722 0.706994 152.61 199.501)" fill="#A5D8FF"/>
<ellipse id="Ellipse 5_51" cx="153.486" cy="198.625" rx="3.30485" ry="3.30379" fill="#A5D8FF"/>
<rect id="Rectangle 33_53" width="2.47824" height="24.2251" transform="matrix(-0.70722 0.706994 -0.70722 -0.706994 173.146 191.384)" fill="#A5D8FF"/>
<ellipse id="Ellipse 5_52" cx="172.27" cy="192.26" rx="3.30485" ry="3.30379" transform="rotate(-180 172.27 192.26)" fill="#A5D8FF"/>
<rect id="Rectangle 33_54" width="2.47824" height="17.7697" transform="matrix(0.70722 -0.706994 0.70722 0.706994 144.072 117.313)" fill="#A5D8FF"/>
<ellipse id="Ellipse 5_53" cx="144.949" cy="116.437" rx="3.30485" ry="3.30379" fill="#A5D8FF"/>
<rect id="Rectangle 33_55" width="2.47824" height="23.6763" transform="matrix(-0.70722 0.706994 -0.70722 -0.706994 150.282 210.179)" fill="#A5D8FF"/>
<ellipse id="Ellipse 5_54" cx="149.406" cy="211.055" rx="3.30485" ry="3.30379" transform="rotate(-180 149.406 211.055)" fill="#A5D8FF"/>
<rect id="Rectangle 35_23" width="2.47824" height="32.2218" transform="matrix(0.70722 0.706994 -0.70722 0.706994 138.815 127.294)" fill="#A5D8FF"/>
<circle id="Ellipse 3_16" r="3.30432" transform="matrix(0.70722 0.706994 -0.70722 0.706994 139.691 128.17)" fill="#A5D8FF"/>
<circle id="Ellipse 4_9" r="3.30432" transform="matrix(0.70722 0.706994 -0.70722 0.706994 116.904 150.951)" fill="#A5D8FF"/>
<rect id="Rectangle 35_24" width="2.47824" height="32.2218" transform="matrix(0.70722 -0.706994 0.70722 0.706994 182.89 117.377)" fill="#A5D8FF"/>
<circle id="Ellipse 3_17" r="3.30432" transform="matrix(0.70722 -0.706994 0.70722 0.706994 183.767 116.501)" fill="#A5D8FF"/>
<circle id="Ellipse 4_10" r="3.30432" transform="matrix(0.70722 -0.706994 0.70722 0.706994 206.554 139.282)" fill="#A5D8FF"/>
<rect id="Rectangle 35_25" width="2.47824" height="32.2218" transform="matrix(-0.70722 0.706994 -0.70722 -0.706994 140.531 232.894)" fill="#A5D8FF"/>
<circle id="Ellipse 3_18" r="3.30432" transform="matrix(-0.70722 0.706994 -0.70722 -0.706994 139.655 233.77)" fill="#A5D8FF"/>
<circle id="Ellipse 4_11" r="3.30432" transform="matrix(-0.70722 0.706994 -0.70722 -0.706994 116.867 210.99)" fill="#A5D8FF"/>
<rect id="Rectangle 35_26" width="2.47824" height="32.2218" transform="matrix(0.70722 0.706994 -0.70722 0.706994 200.139 210.135)" fill="#A5D8FF"/>
<circle id="Ellipse 3_19" r="3.30432" transform="matrix(0.70722 0.706994 -0.70722 0.706994 201.015 211.011)" fill="#A5D8FF"/>
<circle id="Ellipse 4_12" r="3.30432" transform="matrix(0.70722 0.706994 -0.70722 0.706994 178.227 233.792)" fill="#A5D8FF"/>
<rect id="Rectangle 35_27" width="2.47824" height="79.3546" transform="matrix(0.70722 0.706994 -0.70722 0.706994 172.133 136.097)" fill="#A5D8FF"/>
<circle id="Ellipse 3_20" r="3.30432" transform="matrix(0.70722 0.706994 -0.70722 0.706994 173.553 136.429)" fill="#A5D8FF"/>
<circle id="Ellipse 4_13" r="3.30432" transform="matrix(0.70722 0.706994 -0.70722 0.706994 116.888 193.076)" fill="#A5D8FF"/>
<rect id="Rectangle 35_28" width="2.47824" height="76.2042" transform="matrix(0.70722 0.706994 -0.70722 0.706994 169.905 116.437)" fill="#A5D8FF"/>
<circle id="Ellipse 3_21" cx="171.375" cy="116.502" r="3.30432" transform="rotate(45 171.375 116.502)" fill="#A5D8FF"/>
<circle id="Ellipse 4_14" r="3.30432" transform="matrix(0.70722 0.706994 -0.70722 0.706994 116.888 171.189)" fill="#A5D8FF"/>
<rect id="Rectangle 35_29" width="2.47824" height="57.278" transform="matrix(-0.70722 0.706994 -0.70722 -0.706994 216.291 191.688)" fill="#A5D8FF"/>
<rect id="Rectangle 36" width="2.47824" height="57.278" transform="matrix(0.70722 0.706994 -0.70722 0.706994 174.03 152.957)" fill="#A5D8FF"/>
<circle id="Ellipse 3_22" r="3.30432" transform="matrix(-0.70722 0.706994 -0.70722 -0.706994 215.959 193.108)" fill="#A5D8FF"/>
<rect id="Rectangle 35_30" width="2.47824" height="53.4651" transform="matrix(0.70722 0.706994 -0.70722 0.706994 233.29 133.137)" fill="#A5D8FF"/>
<ellipse id="Ellipse 9_26" rx="3.37878" ry="3.30432" transform="matrix(0.70722 -0.706994 0.70722 0.706994 234.166 134.013)" fill="#A5D8FF"/>
<rect id="Rectangle 33_56" width="2.47824" height="46.1339" transform="matrix(-0.70722 -0.706994 0.70722 -0.706994 201.92 233.201)" fill="#A5D8FF"/>
<ellipse id="Ellipse 10_3" cx="234.191" cy="198.833" rx="3.30379" ry="3.30485" transform="rotate(-90 234.191 198.833)" fill="#A5D8FF"/>
<rect id="Rectangle 35_31" width="2.47824" height="80.6479" transform="matrix(-0.70722 0.706994 -0.70722 -0.706994 235.083 232.879)" fill="#A5D8FF"/>
<circle id="Ellipse 3_23" r="3.30432" transform="matrix(-0.70722 0.706994 -0.70722 -0.706994 234.207 233.755)" fill="#A5D8FF"/>
<ellipse id="Ellipse 11" cx="177.218" cy="176.787" rx="3.30379" ry="3.30485" transform="rotate(-90 177.218 176.787)" fill="#A5D8FF"/>
</g>
</g>
</svg>
